<?xml version="1.0" encoding="UTF-8"?>
<svg version="1.1" xmlns="http://www.w3.org/2000/svg" width="2000" height="1500">
<path d="M0 0 C660 0 1320 0 2000 0 C2000 495 2000 990 2000 1500 C1340 1500 680 1500 0 1500 C0 1005 0 510 0 0 Z " fill="#000000" transform="translate(0,0)"/>
<path d="M0 0 C2.03294837 -0.01152594 4.06586634 -0.03198737 6.09863281 -0.06152344 C21.68382549 -0.2868121 36.37643511 0.44367804 50.49487305 7.85766602 C51.14834717 8.19354736 51.80182129 8.52942871 52.47509766 8.87548828 C67.87250149 17.21786295 79.66963551 32.165839 85.03637695 48.73950195 C90.65181979 68.04506942 90.73774863 86.78443779 86.24487305 106.29516602 C86.02831055 107.23618164 85.81174805 108.17719727 85.58862305 109.14672852 C82.1517804 122.03488845 74.98435661 133.26832759 65.24487305 142.29516602 C64.4559668 143.09180664 64.4559668 143.09180664 63.65112305 143.90454102 C48.08749263 158.80869557 25.90044933 162.15667242 5.26391602 161.78222656 C2.48237142 161.73244226 -0.297393 161.72069962 -3.0793457 161.71508789 C-4.90358271 161.70100649 -6.72780485 161.68480374 -8.55200195 161.66625977 C-9.35555115 161.66089706 -10.15910034 161.65553436 -10.98699951 161.65000916 C-16.242725 161.54477134 -21.38538335 160.99633498 -26.5894165 160.27601624 C-27.28071466 160.18200799 -27.97201283 160.08799973 -28.68425941 159.99114275 C-30.37479919 159.76098371 -32.06499899 159.5283299 -33.75512695 159.29516602 C-33.77845421 138.84218128 -33.79610527 118.38919922 -33.80693913 97.93620396 C-33.81210245 88.44021219 -33.81914585 78.94422866 -33.83056641 69.44824219 C-33.84051213 61.17463756 -33.84698011 52.90103891 -33.84921545 44.62742847 C-33.85052275 40.24383012 -33.8536098 35.86024885 -33.86085701 31.47665596 C-33.86761546 27.35553101 -33.86974427 23.23443029 -33.86823463 19.11330032 C-33.86851104 17.5963026 -33.8705172 16.07930412 -33.87433243 14.56231117 C-33.87926696 12.500093 -33.87812616 10.43796775 -33.87538147 8.37574768 C-33.87630326 7.21889749 -33.87722506 6.06204729 -33.87817478 4.87014103 C-33.75512695 2.29516602 -33.75512695 2.29516602 -32.75512695 1.29516602 C-21.97801313 -0.24336752 -10.86003531 0.04270458 0 0 Z " fill="#FBFBFB" transform="translate(285.755126953125,673.704833984375)"/>
<path d="M0 0 C21.45 0 42.9 0 65 0 C65 78.54 65 157.08 65 238 C43.55 238 22.1 238 0 238 C0 159.46 0 80.92 0 0 Z " fill="#7F7F7F" transform="translate(1668,631)"/>
<path d="M0 0 C21.45 0 42.9 0 65 0 C65 78.54 65 157.08 65 238 C43.55 238 22.1 238 0 238 C0 159.46 0 80.92 0 0 Z " fill="#BEBEBE" transform="translate(1589,631)"/>
<path d="M0 0 C21.45 0 42.9 0 65 0 C65 78.54 65 157.08 65 238 C43.55 238 22.1 238 0 238 C0 159.46 0 80.92 0 0 Z " fill="#FEFEFE" transform="translate(1509,631)"/>
<path d="M0 0 C1.70458374 0.0153479 1.70458374 0.0153479 3.44360352 0.03100586 C18.64958887 0.41378507 31.65286115 5.37670567 42.9375 15.8125 C57.43358591 31.316707 59.93689114 48.98493086 59.27929688 69.34228516 C58.64599099 84.65952902 51.17946682 98.09109991 40.1875 108.5625 C39.61386719 109.14386719 39.04023437 109.72523438 38.44921875 110.32421875 C33.73208758 114.79367239 28.15046963 117.13509643 22.1875 119.5625 C21.37539063 119.91828125 20.56328125 120.2740625 19.7265625 120.640625 C8.05525796 124.87820634 -9.43500645 124.30462489 -20.8125 119.5625 C-21.78058594 119.17191406 -22.74867188 118.78132812 -23.74609375 118.37890625 C-38.37133126 111.80220709 -47.64755792 100.70290162 -53.625 86.0625 C-59.96260642 68.27967673 -59.91775125 49.42683005 -52.26953125 32.05859375 C-44.9771189 17.65733091 -34.33406699 7.92671879 -19.16015625 2.3359375 C-12.72591834 0.30071972 -6.71527152 -0.091647 0 0 Z " fill="#FBFBFB" transform="translate(978.8125,713.4375)"/>
<path d="M0 0 C0.90283218 -0.00428513 1.80566437 -0.00857025 2.7358551 -0.01298523 C4.62378103 -0.01866576 6.51172882 -0.01927594 8.3996582 -0.01489258 C11.24534307 -0.01172827 14.08998935 -0.03528682 16.93554688 -0.06054688 C36.55639433 -0.12903431 54.53160492 2.94825626 69.81640625 16.30078125 C79.59863873 26.77448131 82.45838521 39.02786054 82.12890625 52.96875 C81.59484581 63.06916807 77.90825515 71.367989 71.81640625 79.30078125 C71.23890625 80.16703125 70.66140625 81.03328125 70.06640625 81.92578125 C59.37801594 93.20797103 42.38202678 99.95742343 26.99243164 100.41430664 C25.63296499 100.41406112 24.27349032 100.40871474 22.9140625 100.3984375 C22.27239136 100.39743042 21.63072021 100.39642334 20.96960449 100.39538574 C18.60601985 100.39021134 16.24246097 100.37625079 13.87890625 100.36328125 C8.57828125 100.34265625 3.27765625 100.32203125 -2.18359375 100.30078125 C-2.18359375 120.10078125 -2.18359375 139.90078125 -2.18359375 160.30078125 C-9.11359375 160.30078125 -16.04359375 160.30078125 -23.18359375 160.30078125 C-23.18359375 108.16078125 -23.18359375 56.02078125 -23.18359375 2.30078125 C-15.14162089 1.06355466 -7.98565278 -0.00877358 0 0 Z " fill="#FDFDFD" transform="translate(741.18359375,673.69921875)"/>
<path d="M0 0 C12.35250343 10.41485584 19.89063208 25.91409032 21.27734375 41.99609375 C22.40847248 62.40658189 19.910189 81.94524221 6.33984375 98.12109375 C-4.6232145 109.23201599 -19.55261062 113.89073609 -35.0078125 114.12890625 C-36.93359371 114.1315389 -38.85938875 114.12882258 -40.78515625 114.12109375 C-42.23631836 114.12689453 -42.23631836 114.12689453 -43.71679688 114.1328125 C-44.65845703 114.13152344 -45.60011719 114.13023437 -46.5703125 114.12890625 C-47.41601807 114.12777832 -48.26172363 114.12665039 -49.13305664 114.12548828 C-52.0173017 113.9813712 -54.87410511 113.47085227 -57.72265625 112.99609375 C-57.72265625 72.40609375 -57.72265625 31.81609375 -57.72265625 -10.00390625 C-37.53864144 -12.5269081 -17.06820826 -12.56239719 0 0 Z " fill="#010101" transform="translate(331.72265625,703.00390625)"/>
<path d="M0 0 C1.65044312 0.01643555 1.65044312 0.01643555 3.33422852 0.03320312 C16.59676716 0.38533189 27.25677802 3.8651227 36.75 13.5625 C51.1006593 30.50190569 50.75 47.12242929 50.75 69.5625 C23.36 69.5625 -4.03 69.5625 -32.25 69.5625 C-28.91733486 82.89316056 -25.33719387 93.1371239 -13.41015625 100.484375 C-7.39616805 103.4859315 -2.16050452 103.88417714 4.4375 103.8125 C5.32872559 103.80573242 6.21995117 103.79896484 7.13818359 103.79199219 C16.73332411 103.64154878 24.85156022 102.28355925 33.65625 98.3671875 C35.75 97.5625 35.75 97.5625 38.75 97.5625 C39.45194375 99.62012909 40.13601697 101.68386031 40.8125 103.75 C41.19535156 104.89855469 41.57820313 106.04710937 41.97265625 107.23046875 C42.75095999 110.56661493 42.92034829 112.3669902 41.75 115.5625 C26.95679636 124.10968432 2.2230107 125.40790984 -14.19921875 121.87890625 C-27.34553762 117.73738619 -38.35192027 109.48300182 -45.25 97.5625 C-54.5859539 77.88649647 -56.52689486 56.27034028 -49.25 35.5625 C-43.88622229 22.03212173 -35.65668156 10.83757179 -22.25 4.5625 C-21.55422852 4.223396 -20.85845703 3.88429199 -20.14160156 3.53491211 C-13.36663659 0.48590655 -7.37906508 -0.10385894 0 0 Z " fill="#FCFCFC" transform="translate(449.25,713.4375)"/>
<path d="M0 0 C1.06347656 -0.00708984 2.12695312 -0.01417969 3.22265625 -0.02148438 C16.01399871 0.08053247 26.18370761 3.85410045 35.76171875 12.47265625 C51.38205793 28.86657413 50.5 47.46198773 50.5 69.4375 C23.11 69.4375 -4.28 69.4375 -32.5 69.4375 C-26.36910212 89.20406067 -26.36910212 89.20406067 -11.46875 101.46484375 C1.65486546 106.47861938 17.12301469 104.05697669 29.99609375 99.62890625 C32.85269373 98.65759856 35.53300805 97.93485703 38.5 97.4375 C40.8473706 102.97058785 42.86864652 108.35483241 42.5 114.4375 C25.27493805 122.81611038 1.18861349 126.68033445 -17.4375 120.8125 C-20.078125 119.69140625 -20.078125 119.69140625 -22.5 118.4375 C-23.79164062 117.80134766 -23.79164062 117.80134766 -25.109375 117.15234375 C-38.41370352 109.91559536 -46.10332491 98.61218106 -50.73828125 84.4921875 C-54.58298871 69.07392477 -55.44120444 47.97512581 -48.5 33.4375 C-47.99082031 32.33664062 -47.48164062 31.23578125 -46.95703125 30.1015625 C-39.88483488 15.95716977 -30.0715409 6.98770834 -15.31005859 1.24682617 C-10.24057405 -0.21323823 -5.23808683 -0.09841254 0 0 Z " fill="#FCFCFC" transform="translate(1320.5,713.5625)"/>
<path d="M0 0 C2.21484375 1.39453125 2.21484375 1.39453125 4.3125 3 C5.09753906 3.58136719 5.88257813 4.16273438 6.69140625 4.76171875 C15.72321081 12.09727006 21.25782757 21.98067347 22.61425781 33.58056641 C22.7480577 36.18669091 22.78019175 38.76570789 22.75 41.375 C22.74315186 42.29112061 22.73630371 43.20724121 22.72924805 44.15112305 C22.43872254 56.44786011 18.3774088 66.4948483 10.25 75.6875 C2.47745458 82.92858932 -6.73009791 84.78121406 -17.0300293 84.65991211 C-26.97254316 84.15568086 -35.15473658 79.78022443 -41.87109375 72.4609375 C-51.42336454 59.51915126 -53.71324622 45.75482077 -52.6875 30 C-50.84019413 19.16151011 -45.18913323 9.907577 -36.6875 3 C-26.59883225 -3.23335543 -10.97391477 -5.19083588 0 0 Z " fill="#010101" transform="translate(994.6875,734)"/>
<path d="M0 0 C-0.19335938 0.64066406 -0.38671875 1.28132812 -0.5859375 1.94140625 C-2.0940748 6.95110985 -3.57717786 11.96539857 -5 17 C-8.47326567 16.42112239 -11.22425126 15.47970859 -14.375 13.9375 C-21.61544128 10.98929636 -30.12746211 10.34406983 -37.59765625 12.8828125 C-42.87424359 15.86137208 -45.81583817 20.09982018 -47.57788086 25.90332031 C-48.05701424 28.28319161 -48.21287853 30.55886836 -48.31640625 32.984375 C-48.35451416 33.82709961 -48.39262207 34.66982422 -48.43188477 35.53808594 C-48.47498779 36.59801758 -48.51809082 37.65794922 -48.5625 38.75 C-48.706875 42.1325 -48.85125 45.515 -49 49 C-37.45 49 -25.9 49 -14 49 C-14 54.94 -14 60.88 -14 67 C-25.55 67 -37.1 67 -49 67 C-49 98.68 -49 130.36 -49 163 C-55.6 163 -62.2 163 -69 163 C-69 131.32 -69 99.64 -69 67 C-74.94 67 -80.88 67 -87 67 C-87 61.39 -87 55.78 -87 50 C-81.06 50 -75.12 50 -69 50 C-69.04640625 48.25074219 -69.0928125 46.50148438 -69.140625 44.69921875 C-69.17817074 42.36199638 -69.21456787 40.02475537 -69.25 37.6875 C-69.30027344 35.96563477 -69.30027344 35.96563477 -69.3515625 34.20898438 C-69.48875855 22.10143262 -66.11877723 12.1122796 -58 3 C-42.79217738 -10.57202321 -16.98023639 -11.32015759 0 0 Z " fill="#FCFCFC" transform="translate(1137,671)"/>
<path d="M0 0 C1.25838325 2.47585752 2.32198559 4.87587522 3.34375 7.44921875 C3.66556747 8.23360825 3.98738495 9.01799774 4.31895447 9.82615662 C5.38967076 12.44250639 6.44476142 15.06487363 7.5 17.6875 C8.24378309 19.51395336 8.98867469 21.33995565 9.73461914 23.16552734 C11.32366613 27.05668511 12.90741725 30.94994781 14.48876953 34.84423828 C17.05377176 41.14748092 19.6618764 47.43240482 22.27734375 53.71484375 C23.14718731 55.80702595 24.01697948 57.89922952 24.88671875 59.99145508 C26.15593875 63.04435313 27.42581121 66.09696779 28.69824219 69.14852905 C29.88456139 71.99593621 31.06588822 74.84536692 32.24609375 77.6953125 C32.59743881 78.5353331 32.94878387 79.3753537 33.31077576 80.24082947 C35.18419551 84.7782517 36.75440427 89.25044614 38 94 C38.66 94 39.32 94 40 94 C40.1744162 93.38185928 40.3488324 92.76371857 40.52853394 92.12684631 C42.22815889 86.26365235 44.23533702 80.66879657 46.6328125 75.05859375 C47.15710342 73.81347267 47.15710342 73.81347267 47.69198608 72.54319763 C48.8315819 69.83926804 49.97815149 67.13836042 51.125 64.4375 C52.74423673 60.60633263 54.36038885 56.77386659 55.9765625 52.94140625 C56.38936462 51.96393433 56.80216675 50.9864624 57.22747803 49.97937012 C60.15720307 43.03213043 63.03985724 36.0666285 65.8984375 29.08984375 C66.6795122 27.18757623 67.46059922 25.28531377 68.24169922 23.38305664 C69.36832532 20.63835873 70.4927381 17.89285697 71.6104126 15.14450073 C72.64062901 12.612101 73.67885456 10.08312468 74.71875 7.5546875 C75.0231601 6.79949326 75.32757019 6.04429901 75.64120483 5.26622009 C77.77255903 0.11372049 77.77255903 0.11372049 80 -1 C82.76674582 0.07335699 85.43194258 1.20260061 88.125 2.4375 C89.25615234 2.94506836 89.25615234 2.94506836 90.41015625 3.46289062 C92.27659331 4.30160601 94.1387143 5.14991393 96 6 C95.34024879 10.17095299 93.97199183 13.69667582 92.2890625 17.5625 C92.00935104 18.20956406 91.72963959 18.85662811 91.44145203 19.52330017 C90.82985469 20.93706843 90.21611265 22.34991036 89.60049438 23.76193237 C87.89647773 27.67144182 86.20906366 31.58812093 84.51953125 35.50390625 C84.1579039 36.34095596 83.79627655 37.17800568 83.4236908 38.04042053 C78.99117992 48.31316636 74.6548411 58.62640657 70.3125 68.9375 C63.2691583 85.65148543 56.17578898 102.34242997 49 119 C41.74 119 34.48 119 27 119 C25.845 116.08929687 24.69 113.17859375 23.5 110.1796875 C19.80633166 100.91989254 15.96672145 91.72933433 12.04406738 82.5645752 C10.20683143 78.27167675 8.37737148 73.97546292 6.546875 69.6796875 C5.98525665 68.36242676 5.98525665 68.36242676 5.41229248 67.01855469 C1.33082227 57.44056436 -2.71244682 47.84656876 -6.75 38.25 C-7.08193359 37.46143616 -7.41386719 36.67287231 -7.75585938 35.8604126 C-9.2936667 32.20687323 -10.82968683 28.55261311 -12.36132812 24.89648438 C-13.41570575 22.38177053 -14.48374135 19.87449916 -15.56054688 17.36914062 C-16.02009766 16.29341797 -16.47964844 15.21769531 -16.953125 14.109375 C-17.35176758 13.18608398 -17.75041016 12.26279297 -18.16113281 11.31152344 C-19 9 -19 9 -19 6 C-16.40074504 4.80057395 -13.79654493 3.61527179 -11.1875 2.4375 C-10.08051758 1.92413086 -10.08051758 1.92413086 -8.95117188 1.40039062 C-8.23896484 1.08134766 -7.52675781 0.76230469 -6.79296875 0.43359375 C-6.1383667 0.13509521 -5.48376465 -0.16340332 -4.80932617 -0.47094727 C-3 -1 -3 -1 0 0 Z " fill="#FBFBFB" transform="translate(531,715)"/>
<path d="M0 0 C6.93 0 13.86 0 21 0 C21.00364563 1.69636093 21.00729126 3.39272186 21.01104736 5.14048767 C21.04800323 21.13425284 21.10554657 37.12781937 21.18390274 53.12143612 C21.22365975 61.3437373 21.25606914 69.56594323 21.27099609 77.78833008 C21.28402999 84.95755897 21.31103876 92.126578 21.35461307 99.29568869 C21.37718908 103.08938359 21.39291302 106.88282003 21.39188385 110.67658806 C21.39113493 114.25297582 21.40917746 117.82879307 21.44116783 121.40503311 C21.4536475 123.33198845 21.44662088 125.25903978 21.43885803 127.1860199 C21.52926828 134.75731399 22.14882971 141.80497434 27.48248672 147.61485195 C32.95691767 152.41411374 38.06501661 152.453198 45 152 C47.40387628 151.4784042 49.65154445 150.75150578 52 150 C53.32 150 54.64 150 56 150 C56.70246995 151.8903376 57.38640849 153.78756828 58.0625 155.6875 C58.44535156 156.74324219 58.82820313 157.79898438 59.22265625 158.88671875 C60.0233052 162.09333792 59.9237249 163.8686307 59 167 C46.95568479 171.112693 32.15157232 172.56614517 20.125 167.8125 C11.5709754 163.50541026 6.20418902 158.07497079 2.90903091 148.99317741 C0.29835787 140.40011965 -0.55791296 132.69422771 -0.45410156 123.74267578 C-0.45296944 122.38102248 -0.45361404 121.01936675 -0.45587158 119.65771484 C-0.45700546 116.00967825 -0.43371537 112.3621825 -0.40557575 108.71427011 C-0.38033707 104.88399505 -0.3782026 101.05370355 -0.37347412 97.22335815 C-0.36110961 89.99176606 -0.32837783 82.76041982 -0.28807616 75.52893531 C-0.24315351 67.28696439 -0.22132023 59.04498087 -0.20129442 50.80291772 C-0.15963821 33.86846627 -0.08859641 16.93426868 0 0 Z " fill="#F7F7F7" transform="translate(1199,666)"/>
<path d="M0 0 C42.6027088 0 42.6027088 0 54 9 C60.35145768 15.48573797 63.11064708 22.381273 63.4375 31.375 C63.18083996 40.62545574 60.29002542 47.56219972 53.89453125 54.25390625 C40.88906953 66.24038334 24.24889028 65.5373387 7.64038086 65.17700195 C5 65 5 65 0 64 C0 42.88 0 21.76 0 0 Z " fill="#020202" transform="translate(739,692)"/>
<path d="M0 0 C-0.29521362 1.72599542 -0.59574842 3.4510811 -0.8984375 5.17578125 C-1.06520996 6.13653564 -1.23198242 7.09729004 -1.40380859 8.0871582 C-2.24363005 12.19031536 -3.54740609 16.07799645 -5 20 C-8.53568191 20.82668822 -11.6303116 21.03375826 -15.25 20.875 C-23.78384853 20.84068157 -30.25725527 23.264535 -36.85546875 28.71875 C-47.50427802 40.04644511 -48.29683069 53.88353085 -48.4140625 68.53515625 C-48.43280476 70.02446021 -48.45238037 71.51375388 -48.4727478 73.0030365 C-48.52375254 76.89417419 -48.56354611 80.78534619 -48.60089111 84.67663574 C-48.641131 88.65885686 -48.69213144 92.64093919 -48.7421875 96.62304688 C-48.83857121 104.4152759 -48.92209777 112.20756028 -49 120 C-55.93 120 -62.86 120 -70 120 C-70 81.06 -70 42.12 -70 2 C-63.4 2 -56.8 2 -50 2 C-49.67 9.26 -49.34 16.52 -49 24 C-47.989375 22.329375 -46.97875 20.65875 -45.9375 18.9375 C-34.09176121 0.53177041 -20.66568403 -1.02435394 0 0 Z " fill="#F8F8F8" transform="translate(1468,714)"/>
<path d="M0 0 C0.93779297 0.00322266 1.87558594 0.00644531 2.84179688 0.00976562 C4.30649414 0.02233398 4.30649414 0.02233398 5.80078125 0.03515625 C6.78884766 0.03966797 7.77691406 0.04417969 8.79492188 0.04882812 C11.23443599 0.06061322 13.67382814 0.07706614 16.11328125 0.09765625 C17.39708653 4.30530223 16.52200665 6.95042228 15.23828125 11.16015625 C14.86960937 12.38863281 14.5009375 13.61710938 14.12109375 14.8828125 C13.46986853 16.96017047 12.80172227 19.03233318 12.11328125 21.09765625 C10.99050781 21.05125 9.86773438 21.00484375 8.7109375 20.95703125 C-3.22978217 20.60626511 -11.11227901 21.72740055 -20.10546875 30.203125 C-30.31639274 41.06342793 -31.48757232 55.67658868 -31.49609375 69.90234375 C-31.51112214 71.36208892 -31.52785879 72.8218174 -31.54620361 74.28152466 C-31.58936821 78.07237652 -31.60976108 81.86299937 -31.62493896 85.65405273 C-31.64469666 89.54294095 -31.68664362 93.43158824 -31.7265625 97.3203125 C-31.80131134 104.91272531 -31.84987636 112.50494753 -31.88671875 120.09765625 C-38.48671875 120.09765625 -45.08671875 120.09765625 -51.88671875 120.09765625 C-51.88671875 81.15765625 -51.88671875 42.21765625 -51.88671875 2.09765625 C-45.28671875 2.09765625 -38.68671875 2.09765625 -31.88671875 2.09765625 C-31.55671875 9.02765625 -31.22671875 15.95765625 -30.88671875 23.09765625 C-29.89671875 21.42703125 -28.90671875 19.75640625 -27.88671875 18.03515625 C-21.65234458 8.27591459 -12.15284051 -0.07365358 0 0 Z " fill="#FCFCFC" transform="translate(898.88671875,713.90234375)"/>
<path d="M0 0 C6.6 0 13.2 0 20 0 C20 38.61 20 77.22 20 117 C13.4 117 6.8 117 0 117 C0 78.39 0 39.78 0 0 Z " fill="#FDFDFD" transform="translate(1144,716)"/>
<path d="M0 0 C8.61551525 5.4147438 12.81645054 13.39345505 15.2578125 23.03125 C15.66015625 25.671875 15.66015625 25.671875 15.66015625 32.671875 C-5.78984375 32.671875 -27.23984375 32.671875 -49.33984375 32.671875 C-48.16944993 20.96793682 -45.7425313 10.4641575 -36.33984375 2.671875 C-25.15345817 -5.19065242 -12.31960454 -5.90279841 0 0 Z " fill="#050505" transform="translate(1337.33984375,734.328125)"/>
<path d="M0 0 C8.24246849 4.90761816 13.16505591 11.22571103 15.83984375 20.49609375 C16.39756646 24.73478631 16.2109375 29.04117886 16.2109375 33.31640625 C-4.9090625 33.31640625 -26.0290625 33.31640625 -47.7890625 33.31640625 C-46.58192598 21.24504104 -44.04987753 11.85113977 -34.8359375 3.55859375 C-24.98763106 -4.22232012 -11.41560494 -5.44232328 0 0 Z " fill="#040404" transform="translate(464.7890625,733.68359375)"/>
<path d="M0 0 C2.9375 1.1875 2.9375 1.1875 5 3 C5.763125 3.66 6.52625 4.32 7.3125 5 C9.87797863 9.5608509 9.63950252 13.88397987 9 19 C7.42088796 22.78986889 5.46675336 24.83327915 2 27 C-1.72599543 28.24199848 -5.12979217 28.53508555 -9 28 C-14.10209922 25.30455136 -17.17381037 22.4785689 -19 17 C-19.50171564 10.87906919 -19.08833623 7.8832905 -15 3 C-10.47824669 -1.12941029 -5.83027448 -0.63334827 0 0 Z " fill="#FAFAFA" transform="translate(1159,668)"/>
</svg>
